# xmcd
#
# Track frame offsets: 
#        150
#        22475
#        48658
#        64105
#        78062
#        100740
#        120232
#        145899
#        161327
#        182982
#        200432
#        216039
#        232063
#        246000
#        272699
#        292379
#        325420
#        342937
#
# Disc length: 4775 seconds
#
# Revision: 0
# Processed by: cddbd v1.5.2PL0 Copyright (c) Steve Scherf et al.
# Submitted via: ExactAudioCopy v0.95a5
#
DISCID=1312a512
DTITLE=Mark Knopfler - Country-Blues Route part2 CD2
DYEAR=2011
DGENRE=Country
TTITLE0=What it is
TTITLE1=Boom, Like That
TTITLE2=You Can't Beat The House
TTITLE3=Who's you baby now
TTITLE4=The Trawlersman's Song
TTITLE5=Stretching out
TTITLE6=Donkey Town (with Emmylou Harris)
TTITLE7=We're going to War (instrumental)
TTITLE8=Behind With The Rent
TTITLE9=Wanderlust
TTITLE10=Sweet Dreams (with Chet Atkins)
TTITLE11=Marbletown
TTITLE12=Donegan's Gone
TTITLE13=Coyote
TTITLE14=Love and Happiness (with Emmylou Harris)
TTITLE15=The Long Road (instrumental)
TTITLE16=Whoop De Doo
TTITLE17=The Last Laugh (with Van Morrison)
EXTD=
EXTT0=
EXTT1=
EXTT2=
EXTT3=
EXTT4=
EXTT5=
EXTT6=
EXTT7=
EXTT8=
EXTT9=
EXTT10=
EXTT11=
EXTT12=
EXTT13=
EXTT14=
EXTT15=
EXTT16=
EXTT17=
PLAYORDER=
